<svg width="22" height="22" viewBox="0 0 22 22" fill="none" xmlns="http://www.w3.org/2000/svg">
<path d="M6.87566 18.9942C6.98738 18.9756 7.10212 18.9916 7.2045 19.04C8.38059 19.5962 9.66894 19.8885 10.9999 19.8885C15.909 19.8885 19.8886 15.9089 19.8886 10.9998C19.8886 6.09071 15.909 2.11109 10.9999 2.11109C6.09076 2.11109 2.11114 6.09071 2.11114 10.9998C2.11114 12.8963 2.70589 14.7018 3.79394 16.2052C3.91123 16.3673 3.93233 16.5799 3.84918 16.7619L2.49537 19.7242L6.87566 18.9942ZM1.64693 20.9921C1.20781 21.0653 0.865278 20.6181 1.05031 20.2132L2.70661 16.5889C1.60163 14.9526 1.00005 13.0209 1.00005 10.9998C1.00005 5.47707 5.47712 1 10.9999 1C16.5226 1 20.9997 5.47707 20.9997 10.9998C20.9997 16.5226 16.5226 20.9996 10.9999 20.9996C9.56382 20.9996 8.16977 20.6964 6.88943 20.1183L1.64693 20.9921Z" fill="#2E2E2E" stroke="#2E2E2E" stroke-width="0.6"/>
</svg>
