<svg width="28" height="28" viewBox="0 0 28 28" fill="none" xmlns="http://www.w3.org/2000/svg">
<g clip-path="url(#clip0_56_1544)">
<path d="M13.9998 5.88888C10.8303 5.88888 8.22476 7.32776 6.22685 9.17985C4.35532 10.9201 3.06226 12.9861 2.40115 14.4444C3.06226 15.9028 4.35532 17.9687 6.22198 19.709C8.22476 21.5611 10.8303 23 13.9998 23C17.1692 23 19.7748 21.5611 21.7727 19.709C23.6442 17.9687 24.9373 15.9028 25.5984 14.4444C24.9373 12.9861 23.6442 10.9201 21.7775 9.17985C19.7748 7.32776 17.1692 5.88888 13.9998 5.88888ZM4.63726 7.4736C6.92684 5.34443 10.072 3.55554 13.9998 3.55554C17.9275 3.55554 21.0727 5.34443 23.3623 7.4736C25.6373 9.58818 27.1588 12.1111 27.8831 13.8465C28.0435 14.2305 28.0435 14.6583 27.8831 15.0423C27.1588 16.7778 25.6373 19.3055 23.3623 21.4153C21.0727 23.5444 17.9275 25.3333 13.9998 25.3333C10.072 25.3333 6.92684 23.5444 4.63726 21.4153C2.36226 19.3055 0.840734 16.7778 0.121289 15.0423C-0.0391276 14.6583 -0.0391276 14.2305 0.121289 13.8465C0.840734 12.1111 2.36226 9.58332 4.63726 7.4736ZM13.9998 18.3333C16.1484 18.3333 17.8887 16.593 17.8887 14.4444C17.8887 12.2958 16.1484 10.5555 13.9998 10.5555C13.9657 10.5555 13.9366 10.5555 13.9025 10.5555C13.9657 10.8035 13.9998 11.066 13.9998 11.3333C13.9998 13.0493 12.6046 14.4444 10.8887 14.4444C10.6213 14.4444 10.3588 14.4104 10.1109 14.3472C10.1109 14.3812 10.1109 14.4104 10.1109 14.4444C10.1109 16.593 11.8512 18.3333 13.9998 18.3333ZM13.9998 8.22221C15.65 8.22221 17.2326 8.87776 18.3995 10.0447C19.5664 11.2115 20.222 12.7942 20.222 14.4444C20.222 16.0947 19.5664 17.6773 18.3995 18.8442C17.2326 20.0111 15.65 20.6667 13.9998 20.6667C12.3495 20.6667 10.7669 20.0111 9.59999 18.8442C8.43309 17.6773 7.77754 16.0947 7.77754 14.4444C7.77754 12.7942 8.43309 11.2115 9.59999 10.0447C10.7669 8.87776 12.3495 8.22221 13.9998 8.22221Z" fill="#2E2E2E"/>
</g>
<defs>
<clipPath id="clip0_56_1544">
<rect width="28" height="28" fill="white"/>
</clipPath>
</defs>
</svg>
