<svg width="28" height="28" viewBox="0 0 28 28" fill="none" xmlns="http://www.w3.org/2000/svg">
<g clip-path="url(#clip0_82_374)">
<path d="M1.69726 3.22313C1.24226 2.86438 0.581633 2.9475 0.222883 3.4025C-0.135867 3.8575 -0.0527424 4.51813 0.402258 4.87688L26.3023 25.1769C26.7573 25.5356 27.4179 25.4525 27.7766 24.9975C28.1354 24.5425 28.0523 23.8819 27.5973 23.5231L22.9948 19.9181C24.7273 18.1419 25.8998 16.1513 26.4904 14.7381C26.6348 14.3925 26.6348 14.0075 26.4904 13.6619C25.8385 12.1 24.4691 9.825 22.4216 7.92625C20.3654 6.01 17.5348 4.4 13.9998 4.4C11.016 4.4 8.53101 5.55063 6.59288 7.06L1.69726 3.22313ZM8.30351 8.39875C9.88726 7.27438 11.7904 6.5 13.9998 6.5C16.8523 6.5 19.1973 7.795 20.9954 9.46188C22.6798 11.0281 23.8435 12.8875 24.4385 14.2C23.8873 15.425 22.8373 17.1225 21.3366 18.6144L18.9829 16.7681C19.381 15.9981 19.6041 15.1275 19.6041 14.2C19.6041 11.1069 17.0973 8.6 14.0041 8.6C12.5954 8.6 11.3048 9.12063 10.3204 9.97813L8.30351 8.39875ZM17.2766 15.4338L13.711 12.6381C13.8948 12.2663 13.9998 11.8419 13.9998 11.4C13.9998 11.1594 13.9691 10.9231 13.9123 10.7C13.9429 10.7 13.9691 10.7 13.9998 10.7C15.9335 10.7 17.4998 12.2663 17.4998 14.2C17.4998 14.6331 17.421 15.0488 17.2766 15.4338ZM17.6879 21.1344C16.5723 21.6113 15.3429 21.9 13.9998 21.9C11.1473 21.9 8.80226 20.605 7.00413 18.9381C5.31976 17.3719 4.15601 15.5125 3.56101 14.2C3.92413 13.395 4.50163 12.3844 5.28476 11.365L3.63538 10.0656C2.63788 11.365 1.92476 12.66 1.50913 13.6619C1.36476 14.0075 1.36476 14.3925 1.50913 14.7381C2.16101 16.3 3.53038 18.575 5.57788 20.4738C7.63413 22.39 10.4648 24 13.9998 24C16.091 24 17.9329 23.4356 19.521 22.5781L17.6879 21.1344ZM8.39976 14.2C8.39976 17.2931 10.9066 19.8 13.9998 19.8C14.5816 19.8 15.1416 19.7125 15.671 19.5463L13.2123 17.6125C12.1841 17.3763 11.3266 16.685 10.8629 15.7619L8.40851 13.8281C8.39976 13.9506 8.39538 14.0731 8.39538 14.2H8.39976Z" fill="#2E2E2E"/>
</g>
<defs>
<clipPath id="clip0_82_374">
<rect width="28" height="28" fill="white"/>
</clipPath>
</defs>
</svg>
