<svg width="26" height="26" viewBox="0 0 26 26" fill="none" xmlns="http://www.w3.org/2000/svg">
                                <path d="M10.5674 19.3157L9.33477 19.9146C6.83253 20.6063 5.58142 20.9522 4.90701 20.2242C4.23261 19.4962 4.58154 18.1766 5.27942 15.5373L5.45998 14.8545C5.65829 14.1045 5.75745 13.7294 5.70759 13.3576C5.65772 12.9857 5.46449 12.659 5.07801 12.0059L4.72616 11.411C3.36612 9.1121 2.68612 7.96265 3.14028 7.04803C3.59444 6.13342 4.882 6.05938 7.45713 5.9113L8.12334 5.87299C8.85511 5.83091 9.22099 5.80987 9.54005 5.63963C9.8591 5.46939 10.0952 5.16924 10.5674 4.56894L10.9973 4.0224C12.659 1.9099 13.4899 0.853641 14.4449 1.01633C15.4 1.17903 15.8469 2.45292 16.7405 5.0007L16.9716 5.65984C17.2256 6.38384 17.3526 6.74584 17.5997 7.0125C17.8467 7.27917 18.1859 7.4203 18.8642 7.70258L19.4816 7.95956C21.8687 8.95288 23.0622 9.44956 23.1983 10.4647C23.3144 11.3308 22.5953 12.0849 21.1254 13.3576" stroke="#2E2E2E" stroke-width="1.5" />
                                <path d="M17.2116 11.9756C15.9654 10.4844 15.3422 9.73885 14.6258 9.85369C13.9096 9.96853 13.5745 10.8678 12.9043 12.6662L12.7309 13.1314C12.5404 13.6425 12.4451 13.898 12.2598 14.0862C12.0746 14.2746 11.8202 14.3741 11.3114 14.5734L10.8484 14.7548C9.05807 15.456 8.16295 15.8065 8.06086 16.5231C7.95877 17.2397 8.71734 17.8478 10.2344 19.0637L10.6269 19.3783C11.0581 19.7239 11.2737 19.8967 11.3984 20.1332C11.5232 20.3697 11.543 20.6431 11.5828 21.19L11.6189 21.6879C11.7587 23.6124 11.8287 24.5747 12.4819 24.9027C13.1352 25.2308 13.9391 24.7073 15.5469 23.6604L15.9629 23.3896C16.4198 23.0921 16.6483 22.9433 16.9106 22.9013C17.1731 22.8592 17.4398 22.9286 17.9729 23.0674L18.4585 23.1937C20.3352 23.6819 21.2736 23.9261 21.7793 23.4122C22.2851 22.8984 22.0235 21.9668 21.5001 20.1038L21.3646 19.6218C21.2158 19.0924 21.1416 18.8276 21.179 18.5651C21.2163 18.3026 21.3612 18.0721 21.6511 17.6109L21.915 17.1912C22.935 15.5683 23.4451 14.757 23.1044 14.1114C22.7637 13.4658 21.7982 13.4135 19.8668 13.309L19.3671 13.2819C18.8182 13.2522 18.5439 13.2374 18.3045 13.1171C18.0653 12.997 17.8882 12.7852 17.534 12.3614L17.2116 11.9756Z" stroke="#2E2E2E" stroke-width="1.5" />
                            </svg>