<svg width="26" height="26" viewBox="0 0 26 26" fill="none" xmlns="http://www.w3.org/2000/svg">
                                <path fill-rule="evenodd" clip-rule="evenodd" d="M2.53031 8.53115C1.94481 9.75244 2.15034 11.1808 2.5614 14.0377L2.8634 16.1364C3.39143 19.8062 3.65545 21.6411 4.92844 22.7372C6.20142 23.8333 8.06831 23.8333 11.802 23.8333H14.1986C17.9323 23.8333 19.7992 23.8333 21.0722 22.7372C22.3452 21.6411 22.6092 19.8062 23.1373 16.1364L23.4392 14.0377C23.8503 11.1808 24.0558 9.75244 23.4703 8.53115C22.8849 7.30986 21.6386 6.56749 19.1462 5.08275L17.6459 4.18907C15.3826 2.84077 14.2508 2.16663 13.0003 2.16663C11.7498 2.16663 10.6181 2.84077 8.35472 4.18907L6.85447 5.08275C4.36203 6.56749 3.1158 7.30986 2.53031 8.53115ZM13.0003 20.3125C12.5516 20.3125 12.1878 19.9487 12.1878 19.5V16.25C12.1878 15.8012 12.5516 15.4375 13.0003 15.4375C13.449 15.4375 13.8128 15.8012 13.8128 16.25V19.5C13.8128 19.9487 13.449 20.3125 13.0003 20.3125Z" fill="#2E2E2E" />
                            </svg>