<svg width="25" height="22" viewBox="0 0 25 22" fill="none" xmlns="http://www.w3.org/2000/svg">
<path d="M12.4877 4.16991L11.9102 4.7257C12.0613 4.88268 12.2698 4.97138 12.4877 4.97138C12.7056 4.97138 12.914 4.88268 13.0651 4.7257L12.4877 4.16991ZM9.73709 17.871C8.11742 16.5942 6.34638 15.3473 4.94138 13.7652C3.56385 12.214 2.60293 10.4041 2.60293 8.05592H1C1 10.9043 2.1867 13.0774 3.74285 14.8296C5.27152 16.5509 7.22019 17.9279 8.74474 19.1298L9.73709 17.871ZM2.60293 8.05592C2.60293 5.75745 3.9017 3.82997 5.67453 3.01961C7.39683 2.23234 9.71103 2.44083 11.9102 4.7257L13.0651 3.61412C10.4557 0.903024 7.42678 0.456202 5.00814 1.56176C2.64002 2.64423 1 5.15774 1 8.05592H2.60293ZM8.74474 19.1298C9.29212 19.5613 9.87974 20.0215 10.4752 20.3694C11.0706 20.7172 11.7499 21 12.4877 21V19.3971C12.1568 19.3971 11.7675 19.2681 11.284 18.9854C10.8006 18.703 10.2992 18.3141 9.73709 17.871L8.74474 19.1298ZM16.2306 19.1298C17.7551 17.9279 19.7038 16.5509 21.2325 14.8296C22.7886 13.0774 23.9753 10.9043 23.9753 8.05592H22.3724C22.3724 10.4041 21.4115 12.214 20.0339 13.7652C18.6289 15.3473 16.8579 16.5942 15.2383 17.871L16.2306 19.1298ZM23.9753 8.05592C23.9753 5.15774 22.3353 2.64423 19.9671 1.56176C17.5485 0.456202 14.5196 0.903024 11.9102 3.61412L13.0651 4.7257C15.2643 2.44083 17.5785 2.23234 19.3008 3.01961C21.0736 3.82997 22.3724 5.75745 22.3724 8.05592H23.9753ZM15.2383 17.871C14.6761 18.3141 14.1747 18.703 13.6914 18.9854C13.2078 19.2681 12.8185 19.3971 12.4877 19.3971V21C13.2254 21 13.9048 20.7172 14.5001 20.3694C15.0956 20.0215 15.6832 19.5613 16.2306 19.1298L15.2383 17.871Z" fill="#E77127"/>
<path d="M12.4877 4.97138C12.2698 4.97138 12.0613 4.88268 11.9102 4.7257C9.71103 2.44083 7.39683 2.23234 5.67453 3.01961C3.9017 3.82997 2.60293 5.75745 2.60293 8.05592C2.60293 10.4041 3.56385 12.214 4.94138 13.7652C6.34638 15.3473 8.11742 16.5942 9.73709 17.871C10.2992 18.3141 10.8006 18.703 11.284 18.9854C11.7675 19.2681 12.1568 19.3971 12.4877 19.3971C12.8185 19.3971 13.2078 19.2681 13.6914 18.9854C14.1747 18.703 14.6761 18.3141 15.2383 17.871C16.8579 16.5942 18.6289 15.3473 20.0339 13.7652C21.4115 12.214 22.3724 10.4041 22.3724 8.05592C22.3724 5.75745 21.0736 3.82997 19.3008 3.01961C17.5785 2.23234 15.2643 2.44083 13.0651 4.7257C12.914 4.88268 12.7056 4.97138 12.4877 4.97138Z" fill="#E77127"/>
<path d="M9.24091 18.5004L9.73709 17.871M9.73709 17.871C8.11742 16.5942 6.34638 15.3473 4.94138 13.7652C3.56385 12.214 2.60293 10.4041 2.60293 8.05592M9.73709 17.871L8.74474 19.1298M9.73709 17.871C10.2992 18.3141 10.8006 18.703 11.284 18.9854C11.7675 19.2681 12.1568 19.3971 12.4877 19.3971M11.9102 4.7257L12.4877 4.16991L13.0651 4.7257M11.9102 4.7257C12.0613 4.88268 12.2698 4.97138 12.4877 4.97138C12.7056 4.97138 12.914 4.88268 13.0651 4.7257M11.9102 4.7257C9.71103 2.44083 7.39683 2.23234 5.67453 3.01961C3.9017 3.82997 2.60293 5.75745 2.60293 8.05592M11.9102 4.7257L13.0651 3.61412C10.4557 0.903024 7.42678 0.456202 5.00814 1.56176C2.64002 2.64423 1 5.15775 1 8.05592M13.0651 4.7257L11.9102 3.61412C14.5196 0.903024 17.5485 0.456202 19.9671 1.56176C22.3353 2.64423 23.9753 5.15775 23.9753 8.05592M13.0651 4.7257C15.2643 2.44083 17.5785 2.23234 19.3008 3.01961C21.0736 3.82997 22.3724 5.75745 22.3724 8.05592M15.7345 18.5004L16.2306 19.1298M16.2306 19.1298C17.7551 17.9279 19.7038 16.5509 21.2325 14.8296C22.7886 13.0774 23.9753 10.9043 23.9753 8.05592M16.2306 19.1298L15.2383 17.871M16.2306 19.1298C15.6832 19.5613 15.0956 20.0215 14.5001 20.3694C13.9048 20.7172 13.2254 21 12.4877 21M2.60293 8.05592H1M1 8.05592C1 10.9043 2.1867 13.0774 3.74285 14.8296C5.27152 16.5509 7.22019 17.9279 8.74474 19.1298M8.74474 19.1298C9.29212 19.5613 9.87974 20.0215 10.4752 20.3694C11.0706 20.7172 11.7499 21 12.4877 21M12.4877 21V19.3971M12.4877 19.3971C12.8185 19.3971 13.2078 19.2681 13.6914 18.9854C14.1747 18.703 14.6761 18.3141 15.2383 17.871M23.9753 8.05592H22.3724M22.3724 8.05592C22.3724 10.4041 21.4115 12.214 20.0339 13.7652C18.6289 15.3473 16.8579 16.5942 15.2383 17.871" stroke="#E77127" stroke-width="0.3"/>
</svg>
