<svg width="25" height="20" viewBox="0 0 25 20" fill="none" xmlns="http://www.w3.org/2000/svg">
                            <path d="M5.49617 6.80037C5.87199 6.42642 5.8735 5.81861 5.49954 5.44277C5.12559 5.06695 4.51778 5.06544 4.14194 5.43939L5.49617 6.80037ZM0.282858 9.27921C-0.0929636 9.65321 -0.094474 10.2611 0.279479 10.6369C0.653433 11.0127 1.26125 11.0142 1.63708 10.6403L0.282858 9.27921ZM1.63708 9.27921C1.26125 8.90533 0.653433 8.90687 0.279479 9.28266C-0.094474 9.65846 -0.0929636 10.2663 0.282858 10.6403L1.63708 9.27921ZM4.14194 14.4802C4.51778 14.8541 5.12559 14.8525 5.49954 14.4767C5.8735 14.1009 5.87199 13.4931 5.49617 13.1191L4.14194 14.4802ZM0.959971 8.99979C0.429798 8.99979 0 9.4296 0 9.95976C0 10.4899 0.429798 10.9197 0.959971 10.9197V8.99979ZM18.8794 10.9197C19.4096 10.9197 19.8394 10.4899 19.8394 9.95976C19.8394 9.4296 19.4096 8.99979 18.8794 8.99979V10.9197ZM4.14194 5.43939L0.282858 9.27921L1.63708 10.6403L5.49617 6.80037L4.14194 5.43939ZM0.282858 10.6403L4.14194 14.4802L5.49617 13.1191L1.63708 9.27921L0.282858 10.6403ZM0.959971 10.9197H18.8794V8.99979H0.959971V10.9197Z" fill="black" />
                            <path d="M8.64062 13.7996C8.64062 16.6272 10.9329 18.9195 13.7605 18.9195H18.8803C21.7079 18.9195 24.0002 16.6272 24.0002 13.7996V6.11984C24.0002 3.29223 21.7079 1 18.8803 1H13.7605C10.9329 1 8.64062 3.29223 8.64062 6.11984" stroke="black" stroke-width="1.5" stroke-linecap="round" stroke-linejoin="round" />
                        </svg>