<svg width="26" height="26" viewBox="0 0 26 26" fill="none" xmlns="http://www.w3.org/2000/svg">
                                <g clip-path="url(#clip0_599_2338)">
                                    <path d="M1.08425 2.62491L1.08425 2.62492C0.912637 2.96172 0.809274 3.38112 0.755243 4.04242C0.700544 4.71191 0.7 5.56589 0.7 6.76067V15.4932C0.7 16.8481 0.706012 17.3883 0.820119 17.8142L1.08425 2.62491ZM1.08425 2.62491C1.42224 1.96156 1.96156 1.42224 2.62491 1.08425L2.62492 1.08425M1.08425 2.62491L2.62492 1.08425M2.62492 1.08425C2.96172 0.912637 3.38111 0.809274 4.04242 0.755243M2.62492 1.08425L4.04242 0.755243M24.2683 2.62493L24.2682 2.6249C23.9303 1.96154 23.391 1.42225 22.7277 1.08426L24.2683 2.62493ZM24.2683 2.62493C24.4399 2.96173 24.5432 3.38112 24.5973 4.04243C24.652 4.71191 24.6525 5.56589 24.6525 6.76067V14.3664C24.6525 15.5612 24.652 16.4152 24.5973 17.0847C24.5432 17.746 24.4399 18.1654 24.2682 18.5022L24.2682 18.5023M24.2683 2.62493L24.2682 18.5023M24.2682 18.5023C23.9303 19.1656 23.391 19.7049 22.7277 20.0428L22.7277 20.0428L24.2682 18.5023ZM10.3871 22.0619L10.3871 22.0619L10.4459 22.0149C11.0759 21.5108 11.4713 21.1944 11.9177 20.9664C12.3128 20.7645 12.7334 20.6169 13.1681 20.5278C13.1682 20.5277 13.1683 20.5277 13.1683 20.5277L13.3089 21.2134L10.3871 22.0619ZM10.3871 22.0619L7.02728 24.7499L7.02726 24.7499M10.3871 22.0619L7.02726 24.7499M7.02726 24.7499C6.72335 24.993 6.53285 25.1445 6.3884 25.24C6.37603 25.2482 6.36471 25.2555 6.35441 25.2619C6.353 25.2498 6.3516 25.2365 6.35025 25.2217C6.33459 25.0493 6.33389 24.8058 6.33389 24.4166V21.1271C6.33389 20.7405 6.02049 20.4271 5.63389 20.4271M7.02726 24.7499L5.63389 20.4271M5.63389 20.4271C4.27903 20.4271 3.73886 20.4211 3.31297 20.307L5.63389 20.4271ZM4.04242 0.755243C4.71191 0.700544 5.56589 0.7 6.76067 0.7M4.04242 0.755243L6.76067 0.7M6.76067 0.7H18.5919M6.76067 0.7H18.5919M18.5919 0.7C19.7867 0.7 20.6406 0.700544 21.3101 0.755243M18.5919 0.7L21.3101 0.755243M21.3101 0.755243C21.9714 0.809272 22.3908 0.91263 22.7277 1.08425L21.3101 0.755243ZM3.31293 20.307C2.09638 19.981 1.14611 19.0307 0.820123 17.8142L3.31293 20.307Z" stroke="#2E2E2E" stroke-width="1.4" stroke-linecap="round" stroke-linejoin="round" />
                                    <path d="M12.6717 7.21849C12.4976 7.21849 12.3321 7.14288 12.2181 7.01129C11.1283 5.75293 9.3856 5.46721 8.09051 6.5601L7.74528 6.15099L8.09051 6.5601C6.74617 7.69455 6.56682 9.56851 7.61069 10.8952M12.6717 7.21849L7.61069 10.8952M12.6717 7.21849C12.8457 7.21849 13.0112 7.14288 13.1252 7.01129M12.6717 7.21849L13.1252 7.01129M7.61069 10.8952C8.34381 11.8269 10.2373 13.5819 11.6145 14.8165M7.61069 10.8952L11.6145 14.8165M11.6145 14.8165C11.8721 15.0475 12.039 15.1964 12.1778 15.3018M11.6145 14.8165L12.1778 15.3018M13.1252 7.01129C14.2105 5.7581 15.9306 5.47471 17.2591 6.5653L17.2591 6.56532C18.6164 7.67947 18.7819 9.56164 17.7326 10.8952L17.7326 10.8952M13.1252 7.01129L17.7326 10.8952M12.4386 15.4526L12.4386 15.4526C12.5838 15.4963 12.7597 15.4963 12.9046 15.4526L12.9047 15.4526C12.9616 15.4355 13.0347 15.4011 13.1657 15.3017C13.3044 15.1964 13.4713 15.0475 13.7289 14.8166L12.4386 15.4526ZM12.4386 15.4526C12.3817 15.4355 12.3087 15.4011 12.1778 15.3018M12.4386 15.4526L12.1778 15.3018M17.7326 10.8952C16.9995 11.8269 15.1061 13.5818 13.729 14.8165L17.7326 10.8952Z" stroke="#2E2E2E" stroke-width="1.2" stroke-linecap="round" stroke-linejoin="round" />
                                </g>
                                <defs>
                                    <clipPath id="clip0_599_2338">
                                        <rect width="26" height="26" fill="white" />
                                    </clipPath>
                                </defs>
                            </svg>