<svg width="26" height="26" viewBox="0 0 26 26" fill="none" xmlns="http://www.w3.org/2000/svg">
                            <g clip-path="url(#clip0_599_2359)">
                                <path d="M15.4426 0C15.6418 6.27614e-06 15.8358 0.0632236 15.9968 0.180548C16.1577 0.297872 16.2773 0.463248 16.3382 0.652859L17.373 3.86824C17.8076 4.08084 18.2234 4.31978 18.6204 4.58883L21.9242 3.87765C22.119 3.83606 22.322 3.85737 22.5039 3.93852C22.6858 4.01967 22.8372 4.15646 22.9364 4.32919L25.5441 8.84276C25.6437 9.0154 25.6858 9.21519 25.6645 9.41335C25.6432 9.6115 25.5595 9.79776 25.4256 9.94529L23.1584 12.4476C23.1914 12.9274 23.1914 13.409 23.1584 13.8888L25.4256 16.3949C25.5595 16.5424 25.6432 16.7286 25.6645 16.9268C25.6858 17.125 25.6437 17.3247 25.5441 17.4974L22.9364 22.0128C22.8369 22.1852 22.6854 22.3216 22.5035 22.4024C22.3216 22.4832 22.1188 22.5043 21.9242 22.4625L18.6204 21.7513C18.2253 22.0185 17.8076 22.2593 17.3749 22.4719L16.3382 25.6873C16.2773 25.8769 16.1577 26.0423 15.9968 26.1596C15.8358 26.2769 15.6418 26.3401 15.4426 26.3401H10.2273C10.0281 26.3401 9.8341 26.2769 9.67316 26.1596C9.51222 26.0423 9.39267 25.8769 9.33172 25.6873L8.29881 22.4738C7.86537 22.2618 7.44729 22.0198 7.04765 21.7494L3.74573 22.4625C3.55093 22.5041 3.34797 22.4828 3.16606 22.4016C2.98415 22.3205 2.8327 22.1837 2.73352 22.011L0.125841 17.4974C0.0262652 17.3247 -0.0159122 17.125 0.00539078 16.9268C0.0266938 16.7286 0.110376 16.5424 0.244372 16.3949L2.51151 13.8888C2.47867 13.4102 2.47867 12.9299 2.51151 12.4514L0.244372 9.94529C0.110376 9.79776 0.0266938 9.6115 0.00539078 9.41335C-0.0159122 9.21519 0.0262652 9.0154 0.125841 8.84276L2.73352 4.32731C2.83298 4.15492 2.98455 4.01852 3.16643 3.93772C3.34831 3.85692 3.55114 3.83589 3.74573 3.87765L7.04765 4.59071C7.44652 4.32167 7.8642 4.07896 8.29881 3.86636L9.3336 0.652859C9.39435 0.463859 9.51333 0.29892 9.67352 0.181653C9.8337 0.0643855 10.0269 0.000800867 10.2254 0H15.4408H15.4426ZM14.754 1.88144H10.9159L9.84724 5.20594L9.12664 5.55777C8.7724 5.73112 8.43044 5.92851 8.10314 6.14854L7.43711 6.60009L4.02042 5.86256L2.10135 9.18895L4.44374 11.7816L4.3873 12.5793C4.36027 12.9727 4.36027 13.3675 4.3873 13.7608L4.44374 14.5586L2.09759 17.1512L4.01854 20.4776L7.43523 19.7419L8.10126 20.1916C8.42856 20.4116 8.77052 20.609 9.12476 20.7824L9.84535 21.1342L10.9159 24.4587H14.7578L15.8302 21.1323L16.5489 20.7824C16.9028 20.6094 17.2441 20.412 17.5705 20.1916L18.2347 19.7419L21.6533 20.4776L23.5723 17.1512L21.2281 14.5586L21.2845 13.7608C21.3116 13.3668 21.3116 12.9714 21.2845 12.5774L21.2281 11.7797L23.5742 9.18895L21.6533 5.86256L18.2347 6.59632L17.5705 6.14854C17.2442 5.92806 16.9028 5.73066 16.5489 5.55777L15.8302 5.20782L14.7559 1.88144H14.754ZM12.835 7.52576C14.3319 7.52576 15.7676 8.12042 16.8261 9.17894C17.8846 10.2375 18.4793 11.6731 18.4793 13.1701C18.4793 14.667 17.8846 16.1027 16.8261 17.1612C15.7676 18.2197 14.3319 18.8144 12.835 18.8144C11.338 18.8144 9.90234 18.2197 8.84383 17.1612C7.78531 16.1027 7.19064 14.667 7.19064 13.1701C7.19064 11.6731 7.78531 10.2375 8.84383 9.17894C9.90234 8.12042 11.338 7.52576 12.835 7.52576ZM12.835 9.40719C11.837 9.40719 10.8799 9.80364 10.1742 10.5093C9.46853 11.215 9.07208 12.1721 9.07208 13.1701C9.07208 14.168 9.46853 15.1252 10.1742 15.8308C10.8799 16.5365 11.837 16.9329 12.835 16.9329C13.8329 16.9329 14.79 16.5365 15.4957 15.8308C16.2014 15.1252 16.5978 14.168 16.5978 13.1701C16.5978 12.1721 16.2014 11.215 15.4957 10.5093C14.79 9.80364 13.8329 9.40719 12.835 9.40719Z" fill="#2E2E2E" />
                            </g>
                            <defs>
                                <clipPath id="clip0_599_2359">
                                    <rect width="26" height="26" fill="white" />
                                </clipPath>
                            </defs>
                        </svg>