<svg width="19" height="22" viewBox="0 0 19 22" fill="none" xmlns="http://www.w3.org/2000/svg">
<path d="M6.88856 10.9999C6.88856 12.5341 5.64491 13.7777 4.11079 13.7777C2.57666 13.7777 1.33301 12.5341 1.33301 10.9999C1.33301 9.46583 2.57666 8.22217 4.11079 8.22217C5.64491 8.22217 6.88856 9.46583 6.88856 10.9999Z" stroke="#2E2E2E" stroke-width="1.5"/>
<path d="M12.4442 4.88892L6.88867 8.77781" stroke="#2E2E2E" stroke-width="1.5" stroke-linecap="round"/>
<path d="M12.4442 17.1111L6.88867 13.2222" stroke="#2E2E2E" stroke-width="1.5" stroke-linecap="round"/>
<path d="M17.9999 18.2221C17.9999 19.7562 16.7562 20.9999 15.2221 20.9999C13.688 20.9999 12.4443 19.7562 12.4443 18.2221C12.4443 16.688 13.688 15.4443 15.2221 15.4443C16.7562 15.4443 17.9999 16.688 17.9999 18.2221Z" stroke="#2E2E2E" stroke-width="1.5"/>
<path d="M17.9999 3.77778C17.9999 5.3119 16.7562 6.55556 15.2221 6.55556C13.688 6.55556 12.4443 5.3119 12.4443 3.77778C12.4443 2.24366 13.688 1 15.2221 1C16.7562 1 17.9999 2.24366 17.9999 3.77778Z" stroke="#2E2E2E" stroke-width="1.5"/>
</svg>

